# xmcd
# 
# Track frame offsets:
#     150
#     23427
#     33234
#     59045
#     88918
#     116805
#     148086
#     170081
#     190302
# 
# Disc length: 2872
# 
# Revision: 1
# Processed by: cddbd v1.5.2PL0 Copyright (c) Steve Scherf et al.
# Submitted via: fre:ac v1.0.31
# 
DISCID=810b3609
DTITLE=Bojan Z - Julien Lourdeau - Duo
DYEAR=2016
DGENRE=Jazz
TTITLE0=Relaxin
TTITLE1=Seeds (intro)
TTITLE2=Seeds
TTITLE3=Fuzzlija
TTITLE4=Bulgarska
TTITLE5=Mr.Waits
TTITLE6=Roumgrois
TTITLE7=Gradino Kolo
TTITLE8=Grana Od Boua
EXTD=
EXTT0=
EXTT1=
EXTT2=
EXTT3=
EXTT4=
EXTT5=
EXTT6=
EXTT7=
EXTT8=
PLAYORDER=
